TITLE ""
FILE "Step1_Track15.mp3" MP3
  TRACK 01 AUDIO
    TITLE "Step1_Track15_01"
    INDEX 01 00:00:00
  TRACK 02 AUDIO
    TITLE "Step1_Track15_02"
    INDEX 01 00:00:26
  TRACK 03 AUDIO
    TITLE "Step1_Track15_03"
    INDEX 01 00:02:01
  TRACK 04 AUDIO
    TITLE "Step1_Track15_04"
    INDEX 01 00:02:58
  TRACK 05 AUDIO
    TITLE "Step1_Track15_05"
    INDEX 01 00:03:54
  TRACK 06 AUDIO
    TITLE "Step1_Track15_06"
    INDEX 01 00:03:67
  TRACK 07 AUDIO
    TITLE "Step1_Track15_07"
    INDEX 01 00:05:29
  TRACK 08 AUDIO
    TITLE "Step1_Track15_08"
    INDEX 01 00:05:53
  TRACK 09 AUDIO
    TITLE "Step1_Track15_09"
    INDEX 01 00:06:54
  TRACK 10 AUDIO
    TITLE "Step1_Track15_10"
    INDEX 01 00:06:58
  TRACK 11 AUDIO
    TITLE "Step1_Track15_11"
    INDEX 01 00:08:45
  TRACK 12 AUDIO
    TITLE "Step1_Track15_12"
    INDEX 01 00:08:67
  TRACK 13 AUDIO
    TITLE "Step1_Track15_13"
    INDEX 01 00:09:68
  TRACK 14 AUDIO
    TITLE "Step1_Track15_14"
    INDEX 01 00:09:74
  TRACK 15 AUDIO
    TITLE "Step1_Track15_15"
    INDEX 01 00:11:53
  TRACK 16 AUDIO
    TITLE "Step1_Track15_16"
    INDEX 01 00:11:75
  TRACK 17 AUDIO
    TITLE "Step1_Track15_17"
    INDEX 01 00:13:07
  TRACK 18 AUDIO
    TITLE "Step1_Track15_18"
    INDEX 01 00:13:11
  TRACK 19 AUDIO
    TITLE "Step1_Track15_19"
    INDEX 01 00:15:16
  TRACK 20 AUDIO
    TITLE "Step1_Track15_20"
    INDEX 01 00:15:41
  TRACK 21 AUDIO
    TITLE "Step1_Track15_21"
    INDEX 01 00:16:49
  TRACK 22 AUDIO
    TITLE "Step1_Track15_22"
    INDEX 01 00:16:50
  TRACK 23 AUDIO
    TITLE "Step1_Track15_23"
    INDEX 01 00:18:51
  TRACK 24 AUDIO
    TITLE "Step1_Track15_24"
    INDEX 01 00:18:65
  TRACK 25 AUDIO
    TITLE "Step1_Track15_25"
    INDEX 01 00:19:70
  TRACK 26 AUDIO
    TITLE "Step1_Track15_26"
    INDEX 01 00:19:72
  TRACK 27 AUDIO
    TITLE "Step1_Track15_27"
    INDEX 01 00:21:46
  TRACK 28 AUDIO
    TITLE "Step1_Track15_28"
    INDEX 01 00:21:58
  TRACK 29 AUDIO
    TITLE "Step1_Track15_29"
    INDEX 01 00:22:65
  TRACK 30 AUDIO
    TITLE "Step1_Track15_30"
    INDEX 01 00:22:73
  TRACK 31 AUDIO
    TITLE "Step1_Track15_31"
    INDEX 01 00:24:54
  TRACK 32 AUDIO
    TITLE "Step1_Track15_32"
    INDEX 01 00:24:70
  TRACK 33 AUDIO
    TITLE "Step1_Track15_33"
    INDEX 01 00:25:47
  TRACK 34 AUDIO
    TITLE "Step1_Track15_34"
    INDEX 01 00:26:06
  TRACK 35 AUDIO
    TITLE "Step1_Track15_35"
    INDEX 01 00:28:42
  TRACK 36 AUDIO
    TITLE "Step1_Track15_36"
    INDEX 01 00:28:67
  TRACK 37 AUDIO
    TITLE "Step1_Track15_37"
    INDEX 01 00:29:75
  TRACK 38 AUDIO
    TITLE "Step1_Track15_38"
    INDEX 01 00:30:07
  TRACK 39 AUDIO
    TITLE "Step1_Track15_39"
    INDEX 01 00:32:02
  TRACK 40 AUDIO
    TITLE "Step1_Track15_40"
    INDEX 01 00:32:26
  TRACK 41 AUDIO
    TITLE "Step1_Track15_41"
    INDEX 01 00:33:22
  TRACK 42 AUDIO
    TITLE "Step1_Track15_42"
    INDEX 01 00:33:37
  TRACK 43 AUDIO
    TITLE "Step1_Track15_43"
    INDEX 01 00:36:18
